<svg version="1.0" preserveAspectRatio="xMidYMid meet" height="400" viewBox="0 0 675 299.999988" zoomAndPan="magnify" width="900" xmlns:xlink="http://www.w3.org/1999/xlink" xmlns="http://www.w3.org/2000/svg"><defs><clipPath id="d83232999f"><path clip-rule="nonzero" d="M 548 85 L 601 85 L 601 138 L 548 138 Z M 548 85"></path></clipPath><clipPath id="362884095e"><path clip-rule="nonzero" d="M 538.257812 93.34375 L 574.265625 60.066406 L 624.660156 114.59375 L 588.65625 147.875 Z M 538.257812 93.34375"></path></clipPath><clipPath id="90a248314a"><path clip-rule="nonzero" d="M 538.257812 93.34375 L 574.265625 60.066406 L 624.660156 114.59375 L 588.65625 147.875 Z M 538.257812 93.34375"></path></clipPath><clipPath id="a16f6196c6"><path clip-rule="nonzero" d="M 585.03125 56.25 L 637 56.25 L 637 108.550781 L 585.03125 108.550781 Z M 585.03125 56.25"></path></clipPath><clipPath id="1e0522c293"><path clip-rule="nonzero" d="M 574.40625 64.625 L 610.414062 31.34375 L 660.816406 85.875 L 624.804688 119.15625 Z M 574.40625 64.625"></path></clipPath><clipPath id="02b24641bb"><path clip-rule="nonzero" d="M 574.40625 64.625 L 610.414062 31.34375 L 660.816406 85.875 L 624.804688 119.15625 Z M 574.40625 64.625"></path></clipPath></defs><g clip-path="url(#d83232999f)"><g clip-path="url(#362884095e)"><g clip-path="url(#90a248314a)"><path fill-rule="nonzero" fill-opacity="1" d="M 600.097656 87.3125 L 555.871094 85.339844 C 547.335938 84.960938 545.890625 101.605469 556.011719 101.882812 L 583.535156 102.628906 L 581.433594 130.320312 C 580.789062 138.746094 597.238281 139.636719 597.703125 131.070312 Z M 600.097656 87.3125" fill="#18cb96"></path></g></g></g><path fill-rule="nonzero" fill-opacity="1" d="M 52.539062 128.609375 C 52.539062 127.5 52.984375 126.65625 53.882812 126.070312 C 54.792969 125.488281 55.765625 125.195312 56.800781 125.195312 C 57.867188 125.195312 58.8125 125.472656 59.632812 126.011719 C 60.449219 126.539062 60.855469 127.40625 60.855469 128.609375 L 60.855469 165.503906 C 60.855469 166.902344 60.359375 167.953125 59.367188 168.65625 C 58.390625 169.355469 57.324219 169.707031 56.15625 169.707031 C 55.378906 169.707031 54.597656 169.523438 53.824219 169.152344 C 53.0625 168.785156 52.449219 168.296875 51.984375 167.691406 L 30.589844 140.140625 L 30.882812 144.050781 L 30.882812 166 C 30.882812 167.304688 30.445312 168.246094 29.566406 168.832031 C 28.707031 169.414062 27.773438 169.707031 26.765625 169.707031 C 25.671875 169.707031 24.699219 169.414062 23.847656 168.832031 C 22.984375 168.246094 22.5625 167.304688 22.5625 166 L 22.5625 129.457031 C 22.5625 128.054688 22.984375 126.996094 23.847656 126.273438 C 24.699219 125.558594 25.695312 125.195312 26.824219 125.195312 C 27.699219 125.195312 28.445312 125.371094 29.070312 125.71875 C 29.714844 126.070312 30.3125 126.597656 30.882812 127.296875 L 52.800781 155.8125 L 52.539062 151.113281 Z M 52.539062 128.609375" fill="#373643"></path><path fill-rule="nonzero" fill-opacity="1" d="M 84.46875 133.453125 C 88.183594 133.453125 91.429688 134.234375 94.21875 135.789062 C 97.019531 137.351562 99.1875 139.527344 100.726562 142.328125 C 102.257812 145.117188 103.03125 148.371094 103.03125 152.105469 C 102.988281 155.726562 102.191406 158.921875 100.640625 161.679688 C 99.078125 164.421875 96.910156 166.566406 94.128906 168.101562 C 91.363281 169.640625 88.148438 170.40625 84.46875 170.40625 C 80.828125 170.40625 77.609375 169.640625 74.808594 168.101562 C 72.019531 166.566406 69.847656 164.421875 68.269531 161.679688 C 66.707031 158.921875 65.914062 155.726562 65.875 152.105469 C 65.875 148.371094 66.648438 145.117188 68.210938 142.328125 C 69.765625 139.527344 71.949219 137.351562 74.75 135.789062 C 77.550781 134.234375 80.792969 133.453125 84.46875 133.453125 Z M 84.46875 163.429688 C 87.621094 163.429688 90.136719 162.378906 92.027344 160.277344 C 93.910156 158.175781 94.859375 155.457031 94.859375 152.105469 C 94.859375 148.660156 93.910156 145.859375 92.027344 143.699219 C 90.136719 141.523438 87.621094 140.429688 84.46875 140.429688 C 81.332031 140.429688 78.8125 141.523438 76.910156 143.699219 C 74.996094 145.859375 74.050781 148.660156 74.050781 152.105469 C 74.050781 155.457031 74.996094 158.175781 76.910156 160.277344 C 78.8125 162.378906 81.332031 163.429688 84.46875 163.429688 Z M 84.46875 163.429688" fill="#373643"></path><path fill-rule="nonzero" fill-opacity="1" d="M 103.304688 139.378906 C 103 138.445312 102.984375 137.59375 103.277344 136.8125 C 103.582031 136.015625 104.101562 135.375 104.824219 134.886719 C 105.539062 134.382812 106.296875 134.125 107.101562 134.125 C 107.933594 134.125 108.664062 134.351562 109.289062 134.796875 C 109.910156 135.25 110.382812 135.839844 110.71875 136.578125 L 121.402344 158.234375 L 132.113281 136.519531 C 132.523438 135.6875 133.0625 135.082031 133.75 134.710938 C 134.425781 134.324219 135.136719 134.125 135.878906 134.125 C 136.710938 134.125 137.46875 134.351562 138.15625 134.796875 C 138.835938 135.25 139.300781 135.863281 139.558594 136.636719 C 139.804688 137.394531 139.679688 138.292969 139.179688 139.320312 L 124.90625 168.246094 C 124.570312 168.851562 124.074219 169.355469 123.417969 169.765625 C 122.773438 170.1875 122.058594 170.40625 121.285156 170.40625 C 119.746094 170.40625 118.578125 169.734375 117.785156 168.390625 Z M 103.304688 139.378906" fill="#373643"></path><path fill-rule="nonzero" fill-opacity="1" d="M 171.851562 134.125 C 173.054688 134.125 174.019531 134.46875 174.742188 135.148438 C 175.476562 135.832031 175.851562 136.710938 175.851562 137.773438 L 175.851562 166.085938 C 175.851562 167.160156 175.476562 168.035156 174.742188 168.714844 C 174.019531 169.378906 173.054688 169.707031 171.851562 169.707031 C 170.683594 169.707031 169.765625 169.441406 169.109375 168.917969 C 168.464844 168.378906 168.070312 167.65625 167.941406 166.757812 C 166.363281 168.027344 164.589844 168.945312 162.628906 169.53125 C 160.679688 170.113281 158.820312 170.40625 157.054688 170.40625 C 153.683594 170.40625 150.777344 169.640625 148.328125 168.101562 C 145.890625 166.566406 144.023438 164.410156 142.722656 161.621094 C 141.417969 158.820312 140.765625 155.550781 140.765625 151.8125 C 140.765625 148.179688 141.480469 144.984375 142.925781 142.242188 C 144.363281 139.496094 146.378906 137.351562 148.96875 135.789062 C 151.550781 134.234375 154.550781 133.453125 157.957031 133.453125 C 159.433594 133.453125 161.082031 133.738281 162.890625 134.300781 C 164.714844 134.847656 166.402344 135.722656 167.941406 136.929688 C 168.128906 136.097656 168.554688 135.425781 169.195312 134.914062 C 169.851562 134.390625 170.742188 134.125 171.851562 134.125 Z M 157.871094 163.34375 C 159.929688 163.34375 161.914062 162.898438 163.824219 162 C 165.730469 161.089844 167.078125 159.746094 167.882812 157.972656 L 167.882812 145.890625 C 166.984375 144.160156 165.648438 142.824219 163.882812 141.890625 C 162.109375 140.957031 160.324219 140.488281 158.511719 140.488281 C 155.574219 140.488281 153.207031 141.570312 151.421875 143.730469 C 149.625 145.875 148.734375 148.597656 148.734375 151.902344 C 148.734375 155.34375 149.566406 158.117188 151.246094 160.21875 C 152.917969 162.308594 155.128906 163.34375 157.871094 163.34375 Z M 157.871094 163.34375" fill="#373643"></path><path fill-rule="nonzero" fill-opacity="1" d="M 201.140625 133.453125 C 204.585938 133.453125 207.589844 134.214844 210.160156 135.730469 C 212.742188 137.234375 214.75 139.34375 216.171875 142.066406 C 217.585938 144.792969 218.300781 147.953125 218.300781 151.550781 C 218.300781 155.273438 217.585938 158.550781 216.171875 161.386719 C 214.75 164.234375 212.785156 166.453125 210.277344 168.042969 C 207.765625 169.617188 204.804688 170.40625 201.402344 170.40625 C 199.828125 170.40625 198.105469 170.121094 196.238281 169.558594 C 194.367188 169 192.660156 168.210938 191.128906 167.195312 L 191.128906 177.878906 C 191.128906 179.046875 190.71875 179.929688 189.902344 180.535156 C 189.085938 181.132812 188.1875 181.4375 187.21875 181.4375 C 186.179688 181.4375 185.261719 181.132812 184.445312 180.535156 C 183.640625 179.929688 183.25 179.046875 183.25 177.878906 L 183.25 137.714844 C 183.25 136.59375 183.605469 135.71875 184.328125 135.089844 C 185.042969 134.449219 186.035156 134.125 187.304688 134.125 C 189.386719 134.125 190.609375 134.945312 190.984375 136.578125 C 192.617188 135.410156 194.316406 134.609375 196.089844 134.15625 C 197.855469 133.6875 199.542969 133.453125 201.140625 133.453125 Z M 201.199219 163.34375 C 203.941406 163.34375 206.144531 162.261719 207.824219 160.101562 C 209.515625 157.941406 210.363281 155.113281 210.363281 151.609375 C 210.363281 148.304688 209.457031 145.625 207.648438 143.582031 C 205.855469 141.523438 203.488281 140.488281 200.554688 140.488281 C 198.703125 140.488281 196.894531 140.972656 195.128906 141.917969 C 193.355469 142.875 192.019531 144.238281 191.128906 146.003906 L 191.128906 157.621094 C 191.886719 159.433594 193.214844 160.847656 195.128906 161.855469 C 197.03125 162.847656 199.054688 163.34375 201.199219 163.34375 Z M 201.199219 163.34375" fill="#373643"></path><path fill-rule="nonzero" fill-opacity="1" d="M 240.398438 163.488281 C 241.742188 163.488281 243.0625 163.304688 244.367188 162.933594 C 245.667969 162.570312 246.886719 161.933594 248.015625 161.039062 C 249.082031 160.066406 250.125 159.621094 251.140625 159.695312 C 252.167969 159.753906 253.015625 160.125 253.679688 160.804688 C 254.355469 161.46875 254.699219 162.308594 254.699219 163.3125 C 254.699219 164.304688 254.210938 165.269531 253.242188 166.203125 C 251.605469 167.800781 249.664062 168.910156 247.433594 169.53125 C 245.214844 170.152344 242.9375 170.441406 240.601562 170.40625 C 236.960938 170.40625 233.75 169.667969 230.96875 168.1875 C 228.203125 166.691406 226.046875 164.621094 224.492188 161.972656 C 222.929688 159.308594 222.15625 156.222656 222.15625 152.71875 C 222.15625 148.910156 222.894531 145.558594 224.375 142.679688 C 225.871094 139.78125 227.980469 137.527344 230.707031 135.90625 C 233.429688 134.273438 236.660156 133.453125 240.398438 133.453125 C 244.113281 133.453125 247.273438 134.214844 249.882812 135.730469 C 252.488281 137.234375 254.480469 139.34375 255.867188 142.066406 C 257.246094 144.792969 257.941406 147.976562 257.941406 151.609375 C 257.941406 152.777344 257.707031 153.769531 257.238281 154.585938 C 256.773438 155.402344 255.53125 155.8125 253.53125 155.8125 L 230.269531 155.8125 C 230.910156 158.089844 232.136719 159.941406 233.949219 161.359375 C 235.773438 162.78125 237.925781 163.488281 240.398438 163.488281 Z M 240.457031 140.371094 C 237.75 140.371094 235.480469 141.21875 233.65625 142.910156 C 231.847656 144.605469 230.6875 146.835938 230.183594 149.59375 L 250.527344 149.59375 C 250.292969 146.835938 249.375 144.605469 247.78125 142.910156 C 246.207031 141.21875 243.761719 140.371094 240.457031 140.371094 Z M 240.457031 140.371094" fill="#373643"></path><path fill-rule="nonzero" fill-opacity="1" d="M 293.273438 163.082031 C 294.210938 164.09375 294.632812 165.117188 294.558594 166.144531 C 294.5 167.179688 294.121094 168.035156 293.421875 168.714844 C 292.71875 169.378906 291.882812 169.707031 290.910156 169.707031 C 289.839844 169.707031 288.789062 169.195312 287.757812 168.160156 L 277.777344 157.332031 L 267.851562 168.042969 C 266.78125 169.152344 265.613281 169.707031 264.351562 169.707031 C 263.417969 169.707031 262.597656 169.398438 261.898438 168.773438 C 261.199219 168.128906 260.832031 167.335938 260.789062 166.378906 C 260.730469 165.429688 261.167969 164.445312 262.101562 163.429688 L 272.871094 151.8125 L 262.394531 140.488281 C 261.460938 139.480469 261.007812 138.488281 261.050781 137.511719 C 261.109375 136.519531 261.496094 135.71875 262.21875 135.089844 C 262.933594 134.449219 263.78125 134.125 264.757812 134.125 C 265.355469 134.125 265.96875 134.273438 266.597656 134.5625 C 267.238281 134.839844 267.859375 135.308594 268.464844 135.964844 L 277.894531 146.09375 L 287.464844 135.820312 C 288.027344 135.222656 288.613281 134.789062 289.21875 134.535156 C 289.816406 134.265625 290.398438 134.125 290.96875 134.125 C 291.941406 134.125 292.777344 134.441406 293.480469 135.058594 C 294.179688 135.664062 294.542969 136.445312 294.589844 137.394531 C 294.648438 138.351562 294.1875 139.367188 293.214844 140.429688 L 282.738281 151.667969 Z M 293.273438 163.082031" fill="#373643"></path><path fill-rule="nonzero" fill-opacity="1" d="M 314.234375 128.960938 C 314.234375 127.660156 314.652344 126.707031 315.492188 126.101562 C 316.324219 125.5 317.257812 125.195312 318.292969 125.195312 C 319.300781 125.195312 320.234375 125.5 321.09375 126.101562 C 321.96875 126.707031 322.40625 127.660156 322.40625 128.960938 L 322.40625 166.144531 C 322.40625 167.3125 321.96875 168.203125 321.09375 168.800781 C 320.234375 169.40625 319.300781 169.707031 318.292969 169.707031 C 317.257812 169.707031 316.324219 169.414062 315.492188 168.832031 C 314.652344 168.246094 314.234375 167.355469 314.234375 166.144531 Z M 314.234375 128.960938" fill="#373643"></path><path fill-rule="nonzero" fill-opacity="1" d="M 347.351562 133.453125 C 350.597656 133.453125 353.363281 134.171875 355.640625 135.585938 C 357.933594 137.007812 359.683594 138.972656 360.894531 141.480469 C 362.097656 143.992188 362.703125 146.925781 362.703125 150.265625 L 362.703125 166.085938 C 362.703125 167.160156 362.355469 168.035156 361.652344 168.714844 C 360.96875 169.378906 359.996094 169.707031 358.734375 169.707031 C 357.566406 169.707031 356.613281 169.378906 355.875 168.714844 C 355.128906 168.035156 354.765625 167.160156 354.765625 166.085938 L 354.765625 150.148438 C 354.765625 147.253906 354.074219 144.910156 352.691406 143.117188 C 351.308594 141.328125 349.132812 140.429688 346.15625 140.429688 C 345.28125 140.429688 344.214844 140.679688 342.972656 141.160156 C 341.746094 141.648438 340.535156 142.386719 339.355469 143.378906 C 338.164062 144.355469 337.179688 145.589844 336.40625 147.085938 C 335.648438 148.566406 335.269531 150.324219 335.269531 152.367188 L 335.269531 166.144531 C 335.269531 168.523438 333.984375 169.707031 331.414062 169.707031 C 330.203125 169.707031 329.210938 169.398438 328.4375 168.773438 C 327.679688 168.128906 327.300781 167.253906 327.300781 166.144531 L 327.300781 137.714844 C 327.300781 136.550781 327.695312 135.664062 328.496094 135.058594 C 329.3125 134.441406 330.234375 134.125 331.269531 134.125 C 332.238281 134.125 333.144531 134.441406 333.984375 135.058594 C 334.835938 135.664062 335.269531 136.503906 335.269531 137.570312 L 335.269531 138.066406 C 337.269531 136.199219 339.339844 134.964844 341.484375 134.359375 C 343.625 133.761719 345.578125 133.453125 347.351562 133.453125 Z M 347.351562 133.453125" fill="#373643"></path><path fill-rule="nonzero" fill-opacity="1" d="M 382.285156 130.304688 C 381.445312 130.304688 380.679688 130.585938 379.980469 131.148438 C 379.277344 131.695312 378.929688 132.550781 378.929688 133.71875 L 378.929688 134.914062 L 383.539062 134.914062 C 384.707031 134.914062 385.554688 135.265625 386.078125 135.964844 C 386.621094 136.664062 386.898438 137.410156 386.898438 138.183594 C 386.898438 139.023438 386.621094 139.78125 386.078125 140.460938 C 385.554688 141.144531 384.707031 141.480469 383.539062 141.480469 L 378.929688 141.480469 L 378.929688 166.203125 C 378.929688 167.371094 378.503906 168.246094 377.675781 168.832031 C 376.835938 169.414062 375.921875 169.707031 374.929688 169.707031 C 373.914062 169.707031 373.003906 169.414062 372.1875 168.832031 C 371.371094 168.246094 370.960938 167.371094 370.960938 166.203125 L 370.960938 141.480469 L 369.152344 141.480469 C 367.984375 141.480469 367.085938 141.144531 366.464844 140.460938 C 365.867188 139.78125 365.5625 139.023438 365.5625 138.183594 C 365.5625 137.410156 365.867188 136.664062 366.464844 135.964844 C 367.085938 135.265625 367.984375 134.914062 369.152344 134.914062 L 370.960938 134.914062 L 370.960938 133.71875 C 370.960938 131.542969 371.484375 129.691406 372.535156 128.171875 C 373.585938 126.65625 374.960938 125.507812 376.652344 124.726562 C 378.34375 123.933594 380.125 123.53125 381.992188 123.53125 C 383.335938 123.53125 384.65625 123.722656 385.964844 124.085938 C 387.285156 124.457031 388.480469 125.105469 389.554688 126.042969 C 390.429688 126.820312 390.851562 127.675781 390.835938 128.609375 C 390.816406 129.542969 390.488281 130.359375 389.84375 131.0625 C 389.21875 131.761719 388.445312 132.183594 387.511719 132.316406 C 386.574219 132.457031 385.640625 132.105469 384.707031 131.265625 C 384.066406 130.625 383.257812 130.304688 382.285156 130.304688 Z M 382.285156 130.304688" fill="#373643"></path><path fill-rule="nonzero" fill-opacity="1" d="M 407.992188 133.453125 C 411.707031 133.453125 414.953125 134.234375 417.742188 135.789062 C 420.542969 137.351562 422.710938 139.527344 424.25 142.328125 C 425.78125 145.117188 426.554688 148.371094 426.554688 152.105469 C 426.511719 155.726562 425.71875 158.921875 424.164062 161.679688 C 422.601562 164.421875 420.433594 166.566406 417.652344 168.101562 C 414.886719 169.640625 411.671875 170.40625 407.992188 170.40625 C 404.351562 170.40625 401.132812 169.640625 398.332031 168.101562 C 395.542969 166.566406 393.371094 164.421875 391.792969 161.679688 C 390.230469 158.921875 389.4375 155.726562 389.402344 152.105469 C 389.402344 148.371094 390.175781 145.117188 391.734375 142.328125 C 393.289062 139.527344 395.472656 137.351562 398.273438 135.789062 C 401.074219 134.234375 404.316406 133.453125 407.992188 133.453125 Z M 407.992188 163.429688 C 411.144531 163.429688 413.664062 162.378906 415.550781 160.277344 C 417.433594 158.175781 418.382812 155.457031 418.382812 152.105469 C 418.382812 148.660156 417.433594 145.859375 415.550781 143.699219 C 413.664062 141.523438 411.144531 140.429688 407.992188 140.429688 C 404.855469 140.429688 402.335938 141.523438 400.433594 143.699219 C 398.523438 145.859375 397.574219 148.660156 397.574219 152.105469 C 397.574219 155.457031 398.523438 158.175781 400.433594 160.277344 C 402.335938 162.378906 404.855469 163.429688 407.992188 163.429688 Z M 407.992188 163.429688" fill="#373643"></path><path fill-rule="nonzero" fill-opacity="1" d="M 449.890625 133.453125 C 453.15625 133.453125 455.929688 134.171875 458.207031 135.585938 C 460.5 137.007812 462.25 138.972656 463.460938 141.480469 C 464.664062 143.992188 465.269531 146.925781 465.269531 150.265625 L 465.269531 166.085938 C 465.269531 167.160156 464.925781 168.035156 464.25 168.714844 C 463.585938 169.378906 462.601562 169.707031 461.300781 169.707031 C 460.132812 169.707031 459.171875 169.378906 458.410156 168.714844 C 457.667969 168.035156 457.300781 167.160156 457.300781 166.085938 L 457.300781 150.148438 C 457.300781 147.253906 456.609375 144.910156 455.230469 143.117188 C 453.867188 141.328125 451.714844 140.429688 448.78125 140.429688 C 447.902344 140.429688 446.867188 140.636719 445.6875 141.042969 C 444.496094 141.4375 443.335938 142.078125 442.210938 142.96875 C 441.101562 143.847656 440.167969 144.984375 439.410156 146.386719 C 438.667969 147.769531 438.300781 149.492188 438.300781 151.550781 L 438.300781 166.085938 C 438.300781 167.160156 437.957031 168.035156 437.28125 168.714844 C 436.617188 169.378906 435.652344 169.707031 434.390625 169.707031 C 433.121094 169.707031 432.121094 169.378906 431.382812 168.714844 C 430.640625 168.035156 430.273438 167.160156 430.273438 166.085938 L 430.273438 127.851562 C 430.273438 126.785156 430.699219 125.953125 431.558594 125.371094 C 432.414062 124.785156 433.339844 124.496094 434.332031 124.496094 C 435.339844 124.496094 436.257812 124.785156 437.074219 125.371094 C 437.894531 125.953125 438.300781 126.785156 438.300781 127.851562 L 438.300781 137.367188 C 440.207031 135.730469 442.183594 134.671875 444.226562 134.183594 C 446.285156 133.703125 448.175781 133.453125 449.890625 133.453125 Z M 449.890625 133.453125" fill="#373643"></path><path fill-rule="nonzero" fill-opacity="1" d="M 503.472656 134.125 C 504.699219 134.125 505.675781 134.503906 506.421875 135.265625 C 507.15625 136.007812 507.53125 136.941406 507.53125 138.066406 L 507.53125 166.144531 C 507.53125 167.3125 507.097656 168.203125 506.246094 168.800781 C 505.386719 169.40625 504.496094 169.707031 503.5625 169.707031 C 502.523438 169.707031 501.605469 169.398438 500.789062 168.773438 C 499.96875 168.128906 499.5625 167.238281 499.5625 166.085938 L 499.5625 165.792969 C 497.648438 167.664062 495.679688 168.902344 493.636719 169.5 C 491.59375 170.101562 489.683594 170.40625 487.917969 170.40625 C 483.070312 170.40625 479.292969 168.882812 476.589844 165.824219 C 473.882812 162.773438 472.535156 158.636719 472.535156 153.417969 L 472.535156 138.066406 C 472.535156 136.980469 472.882812 136.050781 473.585938 135.292969 C 474.285156 134.519531 475.257812 134.125 476.503906 134.125 C 477.730469 134.125 478.699219 134.519531 479.421875 135.292969 C 480.136719 136.050781 480.503906 136.980469 480.503906 138.066406 L 480.503906 153.566406 C 480.503906 156.601562 481.179688 159.007812 482.546875 160.773438 C 483.925781 162.546875 486.105469 163.429688 489.082031 163.429688 C 489.972656 163.429688 491.015625 163.191406 492.207031 162.699219 C 493.390625 162.199219 494.542969 161.460938 495.652344 160.484375 C 496.773438 159.511719 497.707031 158.265625 498.453125 156.746094 C 499.191406 155.230469 499.5625 153.449219 499.5625 151.40625 L 499.5625 138.066406 C 499.5625 136.941406 499.882812 136.007812 500.523438 135.265625 C 501.183594 134.503906 502.167969 134.125 503.472656 134.125 Z M 503.472656 134.125" fill="#373643"></path><path fill-rule="nonzero" fill-opacity="1" d="M 532.886719 133.453125 C 536.480469 133.453125 539.523438 134.214844 542.019531 135.730469 C 544.507812 137.234375 546.414062 139.34375 547.742188 142.066406 C 549.0625 144.792969 549.726562 147.953125 549.726562 151.550781 C 549.726562 155.097656 549.097656 158.292969 547.859375 161.152344 C 546.632812 164.015625 544.859375 166.277344 542.546875 167.925781 C 540.246094 169.582031 537.496094 170.40625 534.285156 170.40625 C 532.140625 170.40625 530.082031 170.042969 528.097656 169.328125 C 526.128906 168.613281 524.332031 167.53125 522.699219 166.085938 C 522.699219 168.5 521.441406 169.707031 518.933594 169.707031 C 517.664062 169.707031 516.671875 169.398438 515.957031 168.773438 C 515.234375 168.128906 514.875 167.253906 514.875 166.144531 L 514.875 127.996094 C 514.875 126.792969 515.269531 125.910156 516.074219 125.339844 C 516.890625 124.777344 517.808594 124.496094 518.84375 124.496094 C 519.816406 124.496094 520.722656 124.777344 521.558594 125.339844 C 522.414062 125.910156 522.84375 126.792969 522.84375 127.996094 L 522.757812 137.714844 C 524.289062 136.257812 525.945312 135.191406 527.71875 134.503906 C 529.484375 133.804688 531.207031 133.453125 532.886719 133.453125 Z M 532.621094 163.285156 C 535.367188 163.285156 537.570312 162.21875 539.246094 160.074219 C 540.917969 157.9375 541.757812 155.113281 541.757812 151.609375 C 541.757812 148.304688 540.859375 145.640625 539.074219 143.613281 C 537.277344 141.589844 534.914062 140.578125 531.980469 140.578125 C 530.113281 140.578125 528.300781 141.09375 526.550781 142.125 C 524.816406 143.136719 523.550781 144.597656 522.757812 146.5 L 522.699219 156.980469 C 523.339844 159.082031 524.59375 160.65625 526.464844 161.707031 C 528.332031 162.757812 530.382812 163.285156 532.621094 163.285156 Z M 532.621094 163.285156" fill="#373643"></path><path fill-rule="nonzero" fill-opacity="1" d="M 270.046875 195.382812 L 270.046875 197.628906 L 262.984375 197.628906 L 262.984375 217.882812 L 260.355469 217.882812 L 260.355469 197.628906 L 253.292969 197.628906 L 253.292969 195.382812 Z M 270.046875 195.382812" fill="#373643"></path><path fill-rule="nonzero" fill-opacity="1" d="M 272.601562 217.882812 L 272.601562 200.898438 L 274.996094 200.898438 L 274.996094 203.582031 L 275.316406 203.640625 C 276.113281 201.714844 277.601562 200.75 279.785156 200.75 C 280.949219 200.75 281.8125 200.96875 282.382812 201.394531 L 281.738281 203.496094 L 281.417969 203.582031 C 280.789062 203.253906 280.105469 203.085938 279.347656 203.085938 C 277.980469 203.085938 276.929688 203.605469 276.195312 204.632812 C 275.472656 205.648438 275.113281 207.289062 275.113281 209.566406 L 275.113281 217.882812 Z M 272.601562 217.882812" fill="#373643"></path><path fill-rule="nonzero" fill-opacity="1" d="M 289.949219 218.207031 C 288.035156 218.207031 286.605469 217.703125 285.65625 216.6875 C 284.722656 215.679688 284.257812 214.191406 284.257812 212.222656 L 284.257812 200.898438 L 286.765625 200.898438 L 286.765625 212.164062 C 286.765625 214.734375 287.976562 216.015625 290.414062 216.015625 C 291.945312 216.015625 293.164062 215.519531 294.0625 214.527344 C 294.953125 213.519531 295.40625 211.886719 295.40625 209.625 L 295.40625 200.898438 L 297.914062 200.898438 L 297.914062 217.882812 L 295.523438 217.882812 L 295.523438 215.230469 L 295.203125 215.140625 C 294.617188 216.175781 293.917969 216.945312 293.101562 217.445312 C 292.28125 217.949219 291.230469 218.207031 289.949219 218.207031 Z M 289.949219 218.207031" fill="#373643"></path><path fill-rule="nonzero" fill-opacity="1" d="M 307.394531 218.207031 C 306.320312 218.207031 305.328125 218.066406 304.417969 217.796875 C 303.519531 217.503906 302.761719 217.117188 302.140625 216.628906 C 301.511719 216.125 301.074219 215.570312 300.824219 214.964844 L 302.285156 213.417969 L 302.605469 213.417969 C 303.167969 214.257812 303.839844 214.894531 304.621094 215.316406 C 305.394531 215.746094 306.320312 215.957031 307.394531 215.957031 C 308.65625 215.957031 309.613281 215.71875 310.253906 215.230469 C 310.910156 214.746094 311.246094 214.0625 311.246094 213.183594 C 311.246094 212.527344 311.042969 211.980469 310.632812 211.550781 C 310.238281 211.105469 309.613281 210.777344 308.734375 210.558594 L 305.875 209.859375 C 304.335938 209.492188 303.21875 208.910156 302.519531 208.105469 C 301.820312 207.289062 301.46875 206.296875 301.46875 205.128906 C 301.46875 204.195312 301.703125 203.394531 302.167969 202.707031 C 302.636719 202.027344 303.308594 201.503906 304.183594 201.132812 C 305.074219 200.765625 306.136719 200.578125 307.363281 200.578125 C 308.917969 200.578125 310.144531 200.800781 311.042969 201.246094 C 311.953125 201.679688 312.65625 202.285156 313.144531 203.058594 L 311.742188 204.457031 L 311.421875 204.457031 C 310.875 203.816406 310.28125 203.363281 309.640625 203.085938 C 309.011719 202.816406 308.253906 202.679688 307.363281 202.679688 C 306.253906 202.679688 305.394531 202.882812 304.796875 203.289062 C 304.210938 203.683594 303.921875 204.253906 303.921875 205.011719 C 303.921875 205.699219 304.125 206.253906 304.53125 206.675781 C 304.957031 207.105469 305.699219 207.449219 306.75 207.699219 L 309.554688 208.371094 C 311.027344 208.71875 312.101562 209.304688 312.765625 210.121094 C 313.421875 210.921875 313.757812 211.929688 313.757812 213.15625 C 313.757812 214.148438 313.507812 215.023438 313.027344 215.785156 C 312.558594 216.542969 311.84375 217.140625 310.894531 217.5625 C 309.941406 217.988281 308.773438 218.207031 307.394531 218.207031 Z M 307.394531 218.207031" fill="#373643"></path><path fill-rule="nonzero" fill-opacity="1" d="M 325.628906 215.199219 L 326.449219 216.980469 C 326.039062 217.386719 325.5 217.695312 324.84375 217.882812 C 324.199219 218.097656 323.5 218.207031 322.742188 218.207031 C 319.507812 218.207031 317.894531 216.5625 317.894531 213.273438 L 317.894531 202.941406 L 314.917969 202.941406 L 314.917969 200.898438 L 317.894531 200.898438 L 317.894531 197.308594 L 320.40625 196.898438 L 320.40625 200.898438 L 325.863281 200.898438 L 325.863281 202.941406 L 320.40625 202.941406 L 320.40625 213.039062 C 320.40625 214.988281 321.253906 215.957031 322.945312 215.957031 C 323.859375 215.957031 324.644531 215.710938 325.308594 215.199219 Z M 325.628906 215.199219" fill="#373643"></path><path fill-rule="nonzero" fill-opacity="1" d="M 352.675781 217.882812 L 349.84375 217.882812 L 347.773438 211.726562 L 338.167969 211.726562 L 336.097656 217.882812 L 333.324219 217.882812 L 341.175781 195.382812 L 344.824219 195.382812 Z M 342.78125 198.09375 L 338.929688 209.507812 L 347.011719 209.507812 L 343.160156 198.09375 Z M 342.78125 198.09375" fill="#373643"></path><path fill-rule="nonzero" fill-opacity="1" d="M 355.316406 217.882812 L 355.316406 200.898438 L 357.710938 200.898438 L 357.710938 203.582031 L 358.03125 203.640625 C 358.59375 202.648438 359.316406 201.890625 360.191406 201.363281 C 361.066406 200.839844 362.132812 200.578125 363.402344 200.578125 C 365.445312 200.578125 366.917969 201.101562 367.839844 202.152344 C 368.75 203.1875 369.210938 204.792969 369.210938 206.96875 L 369.210938 217.882812 L 366.699219 217.882812 L 366.699219 207.027344 C 366.699219 206 366.570312 205.171875 366.320312 204.546875 C 366.066406 203.925781 365.65625 203.480469 365.09375 203.203125 C 364.546875 202.910156 363.824219 202.765625 362.933594 202.765625 C 361.417969 202.765625 360.175781 203.277344 359.226562 204.285156 C 358.292969 205.296875 357.828125 206.933594 357.828125 209.1875 L 357.828125 217.882812 Z M 355.316406 217.882812" fill="#373643"></path><path fill-rule="nonzero" fill-opacity="1" d="M 379.53125 218.207031 C 378.167969 218.207031 376.964844 217.882812 375.914062 217.242188 C 374.863281 216.585938 374.046875 215.601562 373.460938 214.292969 C 372.878906 212.972656 372.585938 211.339844 372.585938 209.390625 C 372.585938 207.464844 372.886719 205.84375 373.492188 204.515625 C 374.109375 203.195312 374.957031 202.210938 376.03125 201.570312 C 377.117188 200.914062 378.378906 200.578125 379.824219 200.578125 C 380.949219 200.578125 381.960938 200.796875 382.859375 201.21875 C 383.75 201.648438 384.53125 202.351562 385.195312 203.320312 L 385.515625 203.261719 L 385.515625 194.097656 L 388.027344 194.097656 L 388.027344 217.882812 L 385.515625 217.882812 L 385.515625 215.402344 L 385.195312 215.34375 C 384.625 216.183594 383.867188 216.878906 382.917969 217.417969 C 381.984375 217.941406 380.855469 218.207031 379.53125 218.207031 Z M 380.320312 215.957031 C 381.898438 215.957031 383.152344 215.425781 384.085938 214.351562 C 385.035156 213.265625 385.515625 211.609375 385.515625 209.390625 C 385.515625 207.195312 385.035156 205.554688 384.085938 204.457031 C 383.152344 203.371094 381.898438 202.824219 380.320312 202.824219 C 378.6875 202.824219 377.417969 203.363281 376.527344 204.429688 C 375.652344 205.480469 375.214844 207.136719 375.214844 209.390625 C 375.214844 213.769531 376.914062 215.957031 380.320312 215.957031 Z M 380.320312 215.957031" fill="#373643"></path><path fill-rule="nonzero" fill-opacity="1" d="M 402.359375 207.289062 L 402.359375 215.695312 L 413.832031 215.695312 L 413.832031 217.882812 L 399.734375 217.882812 L 399.734375 195.382812 L 413.597656 195.382812 L 413.597656 197.570312 L 402.359375 197.570312 L 402.359375 205.101562 L 412.253906 205.101562 L 412.253906 207.289062 Z M 402.359375 207.289062" fill="#373643"></path><path fill-rule="nonzero" fill-opacity="1" d="M 417.660156 217.882812 L 414.890625 217.882812 L 420.140625 209.070312 L 415.152344 200.898438 L 417.984375 200.898438 L 421.921875 207.4375 L 422.273438 207.4375 L 426.214844 200.898438 L 428.929688 200.898438 L 424.054688 209.070312 L 429.191406 217.882812 L 426.359375 217.882812 L 422.15625 210.703125 L 421.804688 210.703125 Z M 417.660156 217.882812" fill="#373643"></path><path fill-rule="nonzero" fill-opacity="1" d="M 438.503906 218.207031 C 437 218.207031 435.648438 217.871094 434.445312 217.183594 C 433.257812 216.503906 432.324219 215.507812 431.644531 214.179688 C 430.957031 212.835938 430.621094 211.246094 430.621094 209.390625 C 430.621094 207.546875 430.957031 205.960938 431.644531 204.632812 C 432.324219 203.289062 433.257812 202.285156 434.445312 201.597656 C 435.648438 200.917969 437 200.578125 438.503906 200.578125 C 440.289062 200.578125 441.714844 200.917969 442.765625 201.597656 C 443.828125 202.285156 444.609375 203.1875 445.097656 204.3125 L 443.378906 205.539062 L 443.054688 205.539062 C 442.605469 204.605469 442.011719 203.925781 441.277344 203.496094 C 440.554688 203.050781 439.625 202.824219 438.503906 202.824219 C 437.453125 202.824219 436.527344 203.078125 435.730469 203.582031 C 434.949219 204.070312 434.335938 204.808594 433.890625 205.800781 C 433.460938 206.777344 433.25 207.976562 433.25 209.390625 C 433.25 210.8125 433.460938 212.019531 433.890625 213.011719 C 434.335938 213.988281 434.949219 214.726562 435.730469 215.230469 C 436.527344 215.71875 437.453125 215.957031 438.503906 215.957031 C 439.671875 215.957031 440.640625 215.695312 441.421875 215.171875 C 442.195312 214.628906 442.808594 213.785156 443.261719 212.632812 L 443.582031 212.632812 L 445.214844 213.59375 C 444.785156 215.039062 443.996094 216.164062 442.851562 216.980469 C 441.722656 217.796875 440.269531 218.207031 438.503906 218.207031 Z M 438.503906 218.207031" fill="#373643"></path><path fill-rule="nonzero" fill-opacity="1" d="M 461.226562 209.976562 L 449.582031 209.976562 C 449.640625 212.039062 450.121094 213.558594 451.039062 214.527344 C 451.972656 215.484375 453.234375 215.957031 454.835938 215.957031 C 456.039062 215.957031 457.007812 215.746094 457.753906 215.316406 C 458.488281 214.894531 459.074219 214.207031 459.503906 213.273438 L 459.824219 213.273438 L 461.460938 214.265625 C 460.949219 215.492188 460.152344 216.453125 459.066406 217.15625 C 457.992188 217.855469 456.585938 218.207031 454.835938 218.207031 C 453.179688 218.207031 451.753906 217.882812 450.574219 217.242188 C 449.40625 216.601562 448.5 215.628906 447.859375 214.324219 C 447.230469 213.003906 446.925781 211.359375 446.925781 209.390625 C 446.925781 207.464844 447.253906 205.84375 447.917969 204.515625 C 448.59375 203.195312 449.523438 202.210938 450.691406 201.570312 C 451.855469 200.914062 453.183594 200.578125 454.6875 200.578125 C 456.847656 200.578125 458.542969 201.191406 459.765625 202.414062 C 460.992188 203.640625 461.605469 205.464844 461.605469 207.875 C 461.605469 208.828125 461.582031 209.472656 461.546875 209.800781 Z M 459.152344 207.875 C 459.09375 206.0625 458.6875 204.75 457.929688 203.933594 C 457.167969 203.117188 456.089844 202.707031 454.6875 202.707031 C 453.183594 202.707031 452.011719 203.128906 451.15625 203.960938 C 450.316406 204.78125 449.8125 206.085938 449.640625 207.875 Z M 459.152344 207.875" fill="#373643"></path><path fill-rule="nonzero" fill-opacity="1" d="M 468.730469 218.207031 C 467.519531 218.207031 466.570312 217.871094 465.871094 217.183594 C 465.183594 216.503906 464.847656 215.484375 464.847656 214.121094 L 464.847656 194.097656 L 467.359375 194.097656 L 467.359375 213.972656 C 467.359375 214.675781 467.488281 215.183594 467.765625 215.492188 C 468.039062 215.804688 468.46875 215.957031 469.050781 215.957031 C 469.402344 215.957031 469.75 215.898438 470.101562 215.785156 L 470.304688 215.839844 L 470.597656 217.828125 C 470.421875 217.941406 470.160156 218.03125 469.808594 218.089844 C 469.476562 218.160156 469.117188 218.207031 468.730469 218.207031 Z M 468.730469 218.207031" fill="#373643"></path><path fill-rule="nonzero" fill-opacity="1" d="M 476.765625 218.207031 C 475.554688 218.207031 474.605469 217.871094 473.90625 217.183594 C 473.222656 216.503906 472.886719 215.484375 472.886719 214.121094 L 472.886719 194.097656 L 475.394531 194.097656 L 475.394531 213.972656 C 475.394531 214.675781 475.527344 215.183594 475.804688 215.492188 C 476.074219 215.804688 476.503906 215.957031 477.089844 215.957031 C 477.4375 215.957031 477.789062 215.898438 478.140625 215.785156 L 478.34375 215.839844 L 478.636719 217.828125 C 478.460938 217.941406 478.195312 218.03125 477.847656 218.089844 C 477.511719 218.160156 477.152344 218.207031 476.765625 218.207031 Z M 476.765625 218.207031" fill="#373643"></path><path fill-rule="nonzero" fill-opacity="1" d="M 494.203125 209.976562 L 482.554688 209.976562 C 482.613281 212.039062 483.097656 213.558594 484.015625 214.527344 C 484.949219 215.484375 486.210938 215.957031 487.808594 215.957031 C 489.015625 215.957031 489.984375 215.746094 490.730469 215.316406 C 491.464844 214.894531 492.050781 214.207031 492.480469 213.273438 L 492.800781 213.273438 L 494.4375 214.265625 C 493.925781 215.492188 493.128906 216.453125 492.042969 217.15625 C 490.96875 217.855469 489.5625 218.207031 487.808594 218.207031 C 486.152344 218.207031 484.730469 217.882812 483.546875 217.242188 C 482.382812 216.601562 481.476562 215.628906 480.835938 214.324219 C 480.207031 213.003906 479.898438 211.359375 479.898438 209.390625 C 479.898438 207.464844 480.230469 205.84375 480.894531 204.515625 C 481.570312 203.195312 482.496094 202.210938 483.664062 201.570312 C 484.832031 200.914062 486.160156 200.578125 487.664062 200.578125 C 489.824219 200.578125 491.515625 201.191406 492.742188 202.414062 C 493.96875 203.640625 494.582031 205.464844 494.582031 207.875 C 494.582031 208.828125 494.558594 209.472656 494.523438 209.800781 Z M 492.128906 207.875 C 492.070312 206.0625 491.664062 204.75 490.902344 203.933594 C 490.144531 203.117188 489.066406 202.707031 487.664062 202.707031 C 486.160156 202.707031 484.984375 203.128906 484.132812 203.960938 C 483.292969 204.78125 482.789062 206.085938 482.613281 207.875 Z M 492.128906 207.875" fill="#373643"></path><path fill-rule="nonzero" fill-opacity="1" d="M 497.882812 217.882812 L 497.882812 200.898438 L 500.277344 200.898438 L 500.277344 203.582031 L 500.597656 203.640625 C 501.160156 202.648438 501.882812 201.890625 502.757812 201.363281 C 503.632812 200.839844 504.699219 200.578125 505.96875 200.578125 C 508.011719 200.578125 509.484375 201.101562 510.402344 202.152344 C 511.316406 203.1875 511.777344 204.792969 511.777344 206.96875 L 511.777344 217.882812 L 509.265625 217.882812 L 509.265625 207.027344 C 509.265625 206 509.132812 205.171875 508.886719 204.546875 C 508.632812 203.925781 508.222656 203.480469 507.660156 203.203125 C 507.113281 202.910156 506.390625 202.765625 505.5 202.765625 C 503.984375 202.765625 502.742188 203.277344 501.792969 204.285156 C 500.859375 205.296875 500.394531 206.933594 500.394531 209.1875 L 500.394531 217.882812 Z M 497.882812 217.882812" fill="#373643"></path><path fill-rule="nonzero" fill-opacity="1" d="M 523.03125 218.207031 C 521.53125 218.207031 520.179688 217.871094 518.976562 217.183594 C 517.785156 216.503906 516.851562 215.507812 516.171875 214.179688 C 515.488281 212.835938 515.152344 211.246094 515.152344 209.390625 C 515.152344 207.546875 515.488281 205.960938 516.171875 204.632812 C 516.851562 203.289062 517.785156 202.285156 518.976562 201.597656 C 520.179688 200.917969 521.53125 200.578125 523.03125 200.578125 C 524.820312 200.578125 526.242188 200.917969 527.292969 201.597656 C 528.359375 202.285156 529.140625 203.1875 529.628906 204.3125 L 527.90625 205.539062 L 527.585938 205.539062 C 527.132812 204.605469 526.542969 203.925781 525.804688 203.496094 C 525.082031 203.050781 524.15625 202.824219 523.03125 202.824219 C 521.980469 202.824219 521.054688 203.078125 520.257812 203.582031 C 519.480469 204.070312 518.867188 204.808594 518.421875 205.800781 C 517.992188 206.777344 517.777344 207.976562 517.777344 209.390625 C 517.777344 210.8125 517.992188 212.019531 518.421875 213.011719 C 518.867188 213.988281 519.480469 214.726562 520.257812 215.230469 C 521.054688 215.71875 521.980469 215.957031 523.03125 215.957031 C 524.199219 215.957031 525.171875 215.695312 525.953125 215.171875 C 526.726562 214.628906 527.335938 213.785156 527.789062 212.632812 L 528.109375 212.632812 L 529.746094 213.59375 C 529.316406 215.039062 528.527344 216.164062 527.382812 216.980469 C 526.25 217.796875 524.796875 218.207031 523.03125 218.207031 Z M 523.03125 218.207031" fill="#373643"></path><path fill-rule="nonzero" fill-opacity="1" d="M 545.757812 209.976562 L 534.109375 209.976562 C 534.167969 212.039062 534.648438 213.558594 535.570312 214.527344 C 536.503906 215.484375 537.765625 215.957031 539.363281 215.957031 C 540.566406 215.957031 541.539062 215.746094 542.28125 215.316406 C 543.019531 214.894531 543.601562 214.207031 544.035156 213.273438 L 544.355469 213.273438 L 545.988281 214.265625 C 545.480469 215.492188 544.683594 216.453125 543.597656 217.15625 C 542.523438 217.855469 541.113281 218.207031 539.363281 218.207031 C 537.707031 218.207031 536.285156 217.882812 535.101562 217.242188 C 533.933594 216.601562 533.03125 215.628906 532.386719 214.324219 C 531.761719 213.003906 531.453125 211.359375 531.453125 209.390625 C 531.453125 207.464844 531.78125 205.84375 532.445312 204.515625 C 533.125 203.195312 534.050781 202.210938 535.21875 201.570312 C 536.386719 200.914062 537.714844 200.578125 539.21875 200.578125 C 541.378906 200.578125 543.070312 201.191406 544.296875 202.414062 C 545.523438 203.640625 546.136719 205.464844 546.136719 207.875 C 546.136719 208.828125 546.113281 209.472656 546.078125 209.800781 Z M 543.683594 207.875 C 543.625 206.0625 543.214844 204.75 542.457031 203.933594 C 541.699219 203.117188 540.617188 202.707031 539.21875 202.707031 C 537.714844 202.707031 536.539062 203.128906 535.6875 203.960938 C 534.847656 204.78125 534.34375 206.085938 534.167969 207.875 Z M 543.683594 207.875" fill="#373643"></path><g clip-path="url(#a16f6196c6)"><g clip-path="url(#1e0522c293)"><g clip-path="url(#02b24641bb)"><path fill-rule="nonzero" fill-opacity="1" d="M 636.253906 58.589844 L 592.027344 56.628906 C 583.488281 56.25 582.046875 72.886719 592.167969 73.164062 L 619.691406 73.90625 L 617.582031 101.597656 C 616.945312 110.035156 633.394531 110.921875 633.859375 102.351562 Z M 636.253906 58.589844" fill="#18cb96"></path></g></g></g></svg>